<svg id="Layer_1" data-name="Layer 1" xmlns="http://www.w3.org/2000/svg" viewBox="0 0 188.62 22.66"><defs><style>.cls-1{fill:#616161;}</style></defs><title>GDGLondon-grey</title><path class="cls-1" d="M124.46,19.32h-9v-16h2v14h6.91Z"/><path class="cls-1" d="M126.07,13.86a5.84,5.84,0,0,1,1.58-4.18,5.42,5.42,0,0,1,4-1.65,5.35,5.35,0,0,1,4,1.65,5.78,5.78,0,0,1,1.61,4.18A5.71,5.71,0,0,1,135.71,18a5.35,5.35,0,0,1-4,1.65,5.42,5.42,0,0,1-4-1.65A5.8,5.8,0,0,1,126.07,13.86Zm2.05,0a4,4,0,0,0,1,2.85,3.49,3.49,0,0,0,5.09,0,4,4,0,0,0,1-2.85,4,4,0,0,0-1-2.84,3.47,3.47,0,0,0-5.09,0A4,4,0,0,0,128.12,13.86Z"/><path class="cls-1" d="M139.41,8.39h2V9.91h.09a3.54,3.54,0,0,1,1.44-1.34,4.43,4.43,0,0,1,5.1.61,4.57,4.57,0,0,1,1.09,3.27v6.87H147V12.58a2.41,2.41,0,0,0-2.7-2.67,2.57,2.57,0,0,0-2.05,1,3.59,3.59,0,0,0-.82,2.38v6h-2.06Z"/><path class="cls-1" d="M156.53,19.68a4.8,4.8,0,0,1-3.68-1.7,6,6,0,0,1-1.52-4.12,6,6,0,0,1,1.52-4.13A4.8,4.8,0,0,1,156.53,8a4.6,4.6,0,0,1,2.19.52,3.7,3.7,0,0,1,1.53,1.36h.09l-.09-1.52v-5h2.05v16h-2V17.81h-.09a3.84,3.84,0,0,1-1.53,1.36A4.71,4.71,0,0,1,156.53,19.68Zm.33-1.87a3.15,3.15,0,0,0,2.48-1.1,4,4,0,0,0,1-2.85,4.09,4.09,0,0,0-1-2.84,3.17,3.17,0,0,0-2.48-1.11A3.22,3.22,0,0,0,154.38,11a4.09,4.09,0,0,0-1,2.84,4,4,0,0,0,1,2.83A3.23,3.23,0,0,0,156.86,17.81Z"/><path class="cls-1" d="M164.51,13.86a5.81,5.81,0,0,1,1.59-4.18,5.41,5.41,0,0,1,4-1.65,5.31,5.31,0,0,1,4,1.65,5.78,5.78,0,0,1,1.61,4.18A5.71,5.71,0,0,1,174.15,18a5.31,5.31,0,0,1-4,1.65,5.41,5.41,0,0,1-4-1.65A5.77,5.77,0,0,1,164.51,13.86Zm2.06,0a4,4,0,0,0,1,2.85,3.37,3.37,0,0,0,2.55,1.1,3.34,3.34,0,0,0,2.54-1.1,4,4,0,0,0,1-2.85,4,4,0,0,0-1-2.84,3.47,3.47,0,0,0-5.09,0A4,4,0,0,0,166.57,13.86Z"/><path class="cls-1" d="M177.86,8.39h2V9.91h.09a3.54,3.54,0,0,1,1.44-1.34,4.11,4.11,0,0,1,2-.54,4.06,4.06,0,0,1,3.09,1.15,4.61,4.61,0,0,1,1.08,3.27v6.87h-2V12.58a2.41,2.41,0,0,0-2.7-2.67,2.56,2.56,0,0,0-2,1,3.54,3.54,0,0,0-.83,2.38v6h-2Z"/><path class="cls-1" d="M19.81,20.48a3.61,3.61,0,0,1-4.95,1.33L2.11,14.45A3.63,3.63,0,1,1,5.74,8.17l12.75,7.36A3.62,3.62,0,0,1,19.81,20.48Z"/><path class="cls-1" d="M26.2,2.14A3.62,3.62,0,0,1,29.34.33a3.58,3.58,0,0,1,1.81.48L43.9,8.17a3.63,3.63,0,0,1-1.82,6.77,3.5,3.5,0,0,1-1.81-.49L27.53,7.1A3.63,3.63,0,0,1,26.2,2.14Z"/><path class="cls-1" d="M18.49,7.1l-6.41,3.7L6.19,7.4a4.54,4.54,0,0,0-1.74-.58l10.41-6A3.58,3.58,0,0,1,16.67.33,3.63,3.63,0,0,1,18.49,7.1Z"/><path class="cls-1" d="M27.53,15.53l6.4-3.7,5.89,3.4a4.52,4.52,0,0,0,1.74.57l-10.41,6a3.62,3.62,0,0,1-3.62-6.28Z"/><path class="cls-1" d="M59.87,18.59a8.31,8.31,0,0,1-4.12-7.24,8.21,8.21,0,0,1,1.12-4.23A8.17,8.17,0,0,1,64,3a8.7,8.7,0,0,1,3.31.62,6.69,6.69,0,0,1,2.55,1.76L68.51,6.77a4.85,4.85,0,0,0-1.94-1.44,6.6,6.6,0,0,0-5.69.31,6.12,6.12,0,0,0-2.33,2.3,6.49,6.49,0,0,0-.88,3.41,6.55,6.55,0,0,0,.88,3.42,6.12,6.12,0,0,0,2.34,2.29,6.32,6.32,0,0,0,3.14.82,6.46,6.46,0,0,0,2.69-.5,6.12,6.12,0,0,0,1.86-1.33,5,5,0,0,0,.93-1.5,6.63,6.63,0,0,0,.45-2h-5.9V10.84h7.65A6.18,6.18,0,0,1,71.83,12a9,9,0,0,1-.47,2.86,6.34,6.34,0,0,1-1.49,2.44A7.59,7.59,0,0,1,64,19.68,8.11,8.11,0,0,1,59.87,18.59Z"/><path class="cls-1" d="M74.16,3.38H79a8.59,8.59,0,0,1,4.27,1,6.91,6.91,0,0,1,2.81,2.81,8.56,8.56,0,0,1,1,4.14,8.56,8.56,0,0,1-1,4.14,6.88,6.88,0,0,1-2.81,2.82,8.59,8.59,0,0,1-4.27,1H74.16ZM79,17.52a6.13,6.13,0,0,0,4.49-1.63,6.07,6.07,0,0,0,1.65-4.54,6.08,6.08,0,0,0-1.65-4.54A6.17,6.17,0,0,0,79,5.19H76V17.52Z"/><path class="cls-1" d="M92.71,18.59a8.05,8.05,0,0,1-3-3,8.25,8.25,0,0,1-1.11-4.23A8.3,8.3,0,0,1,89.7,7.12a8,8,0,0,1,3-3A8.11,8.11,0,0,1,96.85,3a8.65,8.65,0,0,1,3.3.62,6.69,6.69,0,0,1,2.55,1.76l-1.36,1.36a4.81,4.81,0,0,0-1.93-1.44,6.54,6.54,0,0,0-2.54-.5,6.37,6.37,0,0,0-3.15.81,6.22,6.22,0,0,0-2.34,2.3,6.49,6.49,0,0,0-.88,3.41,6.55,6.55,0,0,0,.88,3.42,6.15,6.15,0,0,0,2.35,2.29,6.32,6.32,0,0,0,3.14.82,6.41,6.41,0,0,0,2.68-.5,6.12,6.12,0,0,0,1.86-1.33,4.84,4.84,0,0,0,.94-1.5,7,7,0,0,0,.44-2h-5.9V10.84h7.66a7.07,7.07,0,0,1,.11,1.16,8.71,8.71,0,0,1-.47,2.86,6.34,6.34,0,0,1-1.49,2.44,7.58,7.58,0,0,1-5.85,2.38A8.11,8.11,0,0,1,92.71,18.59Z"/></svg>