<svg id="Layer_1" data-name="Layer 1" xmlns="http://www.w3.org/2000/svg" viewBox="0 0 487.42 65.09"><defs><style>.cls-1{fill:#fad2cf;}.cls-2{fill:#aecbfa;}.cls-3{fill:#a8dab5;}.cls-4{fill:#fbbc04;}.cls-5{fill:#fde293;}.cls-6{fill:#4285f4;}.cls-7{fill:#34a853;}.cls-10,.cls-11,.cls-12,.cls-13,.cls-8{fill:none;stroke-miterlimit:10;}.cls-8{stroke:#0d652d;}.cls-10,.cls-11,.cls-12,.cls-8{stroke-width:0.94px;}.cls-9{fill:#ea4335;}.cls-10{stroke:#e37400;}.cls-11{stroke:#174ea6;}.cls-12,.cls-13{stroke:#a50e0e;}.cls-13{stroke-width:0.93px;}</style></defs><title>Artboard 1</title><rect class="cls-1" x="235.29" y="-0.14" width="26.5" height="65.39"/><rect class="cls-2" x="443.93" y="-0.14" width="26.5" height="65.39"/><rect class="cls-3" x="0.08" y="-0.14" width="26.5" height="65.39"/><path class="cls-4" d="M98.7,65.25h0V-.14h0A23.39,23.39,0,0,0,75.31,23.24V41.87A23.39,23.39,0,0,0,98.7,65.25Z"/><rect class="cls-5" x="98.7" y="-0.14" width="29.63" height="65.39"/><polygon class="cls-2" points="144.37 -0.14 182.12 65.25 182.12 -0.14 144.37 -0.14"/><polygon class="cls-6" points="219.87 -0.14 182.12 -0.14 182.12 65.25 182.12 65.25 219.87 -0.14"/><path class="cls-7" d="M26.58-.14a32.7,32.7,0,0,1,0,65.39Z"/><path class="cls-8" d="M26.58,52.77a20.21,20.21,0,0,0,0-40.42H13.33V27.82"/><path class="cls-4" d="M394.45,48.9a24.52,24.52,0,1,1,0-49Z"/><rect class="cls-9" x="261.79" y="-0.14" width="21.8" height="16.35"/><rect class="cls-6" x="427.27" y="-0.14" width="16.66" height="16.35"/><rect class="cls-6" x="470.43" y="-0.14" width="16.66" height="16.35"/><rect class="cls-9" x="261.79" y="32.56" width="16.35" height="16.35"/><rect class="cls-4" x="394.45" y="-0.14" width="21.8" height="16.35"/><path class="cls-5" d="M394.45,16.21V48.9h-21.8V65.25h21.8a24.52,24.52,0,1,0,0-49Z"/><path class="cls-10" d="M383,36.07A16.35,16.35,0,0,1,394.45,8h12.26"/><line class="cls-11" x1="435.6" y1="8.19" x2="478.77" y2="8.19"/><path class="cls-7" d="M322.56,65.25h0V-.14h0a23.38,23.38,0,0,0-23.38,23.38V41.87A23.38,23.38,0,0,0,322.56,65.25Z"/><rect class="cls-3" x="322.56" y="-0.14" width="29.63" height="65.39"/><line class="cls-8" x1="315.27" y1="22.68" x2="311.05" y2="22.65"/><line class="cls-8" x1="352.19" y1="22.72" x2="323.17" y2="22.72"/><line class="cls-8" x1="352.19" y1="42.39" x2="343.53" y2="42.39"/><line class="cls-8" x1="335.62" y1="42.39" x2="329.03" y2="42.39"/><circle class="cls-11" cx="182.12" cy="38.44" r="4.16"/><circle class="cls-11" cx="196.66" cy="13.27" r="4.16"/><line class="cls-11" x1="194.58" y1="16.86" x2="184.18" y2="34.89"/><circle class="cls-11" cx="167.58" cy="13.27" r="4.16"/><line class="cls-11" x1="169.66" y1="16.86" x2="180.07" y2="34.89"/><rect class="cls-8" x="9.97" y="29.2" width="6.71" height="6.71" transform="translate(26.92 0.11) rotate(45)"/><rect class="cls-8" x="336.78" y="39.6" width="5.59" height="5.59" transform="translate(129.43 -227.7) rotate(45)"/><rect class="cls-8" x="316.5" y="19.93" width="5.59" height="5.59" transform="translate(109.59 -219.12) rotate(45)"/><circle class="cls-11" cx="457.18" cy="22.02" r="3.95"/><circle class="cls-11" cx="457.18" cy="37.17" r="3.95"/><circle class="cls-11" cx="457.18" cy="52.33" r="3.95"/><path class="cls-10" d="M386.72,57.08h7.73a16.35,16.35,0,0,0,0-32.7"/><polyline class="cls-12" points="265.38 40.67 248.54 40.67 248.54 57.51"/><polyline class="cls-13" points="272.66 8.03 248.54 8.03 248.54 32.15"/><line class="cls-10" x1="128.33" y1="22.72" x2="98.58" y2="22.72"/><line class="cls-10" x1="128.33" y1="32.56" x2="98.58" y2="32.56"/><line class="cls-10" x1="128.33" y1="42.39" x2="98.58" y2="42.39"/></svg>